PathFileType	4	(X/Y/Z)	OpenSim_Sub10_EMGBaseline_Magnet.trc
DataRate	CameraRate	NumFrames	NumMarkers	Units	OrigDataRate	OrigDataStartFrame	OrigNumFrames
100	100	33	8	m	100	5126	8201
Frame#	Time	torso_imu_offset_imu	pelvis_imu_offset_imu	tibia_r_imu_offset_imu	femur_r_imu_offset_imu	tibia_l_imu_offset_imu	femur_l_imu_offset_imu	toes_r_imu_offset_imu	toes_l_imu_offset_imu
				X1	Y1	Z1	X2	Y2	Z2	X3	Y3	Z3	X4	Y4	Z4	X5	Y5	Z5	X6	Y6	Z6	X7	Y7	Z7	X8		Y8	Z8	

5126	51.25000000	-0.93994100	-0.11425800	0.07128900	-0.68554700	0.13867200	-0.63354500	-0.71801800	-0.53881800	-0.11132800	-0.81152300	-0.24585000	0.07495100	-0.21167000	0.73779300	0.32275400	-0.73217800	0.21777300	0.33618200	-0.63964800	-0.23901400	-0.38964800	-0.76318400	-0.14306600	0.27929700
5127	51.26000000	-0.93774400	-0.11206100	0.07348600	-0.68554700	0.13256800	-0.63549800	-0.71997100	-0.53881800	-0.12475600	-0.80468800	-0.25830100	0.06860400	-0.20043900	0.73999000	0.32690400	-0.74487300	0.20459000	0.32959000	-0.64379900	-0.23925800	-0.38964800	-0.76123000	-0.13647500	0.29931600
5128	51.27000000	-0.93579100	-0.10791000	0.07543900	-0.68310500	0.12817400	-0.63549800	-0.71557600	-0.54516600	-0.12915000	-0.80224600	-0.26855500	0.06665000	-0.17382800	0.74218800	0.32202100	-0.74902300	0.19384800	0.33203100	-0.64599600	-0.23706100	-0.38964800	-0.75048800	-0.12548800	0.31738300
5129	51.28000000	-0.93994100	-0.11010700	0.07568400	-0.68505900	0.12402300	-0.63989300	-0.70947300	-0.54296900	-0.12475600	-0.80200200	-0.27905300	0.07177700	-0.16040000	0.74877900	0.31933600	-0.75097700	0.18286100	0.32763700	-0.64990200	-0.24340800	-0.39160200	-0.75805700	-0.10571300	0.31958000
5130	51.29000000	-0.93579100	-0.10571300	0.07543900	-0.68090800	0.12207000	-0.63989300	-0.70922900	-0.54931600	-0.13354500	-0.79565400	-0.28515600	0.06738300	-0.14038100	0.75122100	0.31445300	-0.76367200	0.16748000	0.31420900	-0.64599600	-0.23706100	-0.38745100	-0.75659200	-0.08374000	0.31713900
5131	51.30000000	-0.93798800	-0.10571300	0.07763700	-0.67871100	0.12841800	-0.64697300	-0.71118200	-0.55566400	-0.12866200	-0.79956100	-0.29345700	0.07006800	-0.12963900	0.76220700	0.30029300	-0.76562500	0.16528300	0.32104500	-0.64379900	-0.24121100	-0.38964800	-0.76196300	-0.05957000	0.31250000
5132	51.31000000	-0.93579100	-0.10571300	0.08203100	-0.67431600	0.11792000	-0.64209000	-0.70874000	-0.55981400	-0.11523400	-0.79101600	-0.29956100	0.07470700	-0.12109400	0.77099600	0.27978500	-0.77197300	0.15210000	0.29858400	-0.64575200	-0.24121100	-0.38745100	-0.76684600	-0.04858400	0.31030300
5133	51.32000000	-0.93798800	-0.10571300	0.09301800	-0.67846700	0.11572300	-0.64892600	-0.70043900	-0.56396500	-0.11279300	-0.78857400	-0.30786100	0.07739300	-0.11914100	0.78222700	0.25683600	-0.77612300	0.14550800	0.29418900	-0.64990200	-0.23925800	-0.38330100	-0.76977500	-0.03320300	0.30127000
5134	51.33000000	-0.93359400	-0.10571300	0.09082000	-0.67431600	0.11792000	-0.64672900	-0.70263700	-0.56176800	-0.10839800	-0.78637700	-0.31616200	0.07080100	-0.11938500	0.78881800	0.22729500	-0.78466800	0.14111300	0.28979500	-0.64575200	-0.24731400	-0.38330100	-0.77880900	-0.02856400	0.27417000
5135	51.34000000	-0.94458000	-0.09936500	0.09716800	-0.67407200	0.11157200	-0.65576200	-0.70019500	-0.56616200	-0.10376000	-0.78393600	-0.32641600	0.07812500	-0.11743200	0.79345700	0.20483400	-0.78173800	0.11938500	0.28564500	-0.65210000	-0.24340800	-0.38134800	-0.77905300	-0.01977500	0.26293900
5136	51.35000000	-0.94043000	-0.09936500	0.09716800	-0.68017600	0.10522500	-0.65551800	-0.70019500	-0.56616200	-0.10595700	-0.77514600	-0.33886700	0.08081100	-0.12670900	0.80004900	0.17773400	-0.78808600	0.11279300	0.27661100	-0.65185500	-0.24536100	-0.38110400	-0.78588900	-0.01953100	0.23364300
5137	51.36000000	-0.93823200	-0.09521500	0.09912100	-0.67578100	0.10107400	-0.65527300	-0.69824200	-0.56811500	-0.10595700	-0.77099600	-0.33886700	0.08544900	-0.14233400	0.80224600	0.16430700	-0.79443400	0.10424800	0.27465800	-0.64550800	-0.24951200	-0.37695300	-0.79467800	-0.02172900	0.22021500
5138	51.37000000	-0.93847700	-0.09106400	0.10351600	-0.67114300	0.09057600	-0.65502900	-0.69555700	-0.58276400	-0.10766600	-0.77075200	-0.34912100	0.07910200	-0.15576200	0.80004900	0.14892600	-0.78979500	0.09765600	0.27002000	-0.64990200	-0.24340800	-0.37500000	-0.79711900	-0.02172900	0.19091800
5139	51.38000000	-0.93627900	-0.08886700	0.10327100	-0.67334000	0.08862300	-0.66186500	-0.69360400	-0.58056600	-0.10766600	-0.76635700	-0.35742200	0.08862300	-0.17822300	0.79565400	0.12939500	-0.79834000	0.08447300	0.27026400	-0.64990200	-0.24755900	-0.37695300	-0.80566400	-0.03051800	0.16626000
5140	51.39000000	-0.93627900	-0.08886700	0.11425800	-0.67114300	0.08862300	-0.66430700	-0.68920900	-0.58056600	-0.11669900	-0.75976600	-0.36572300	0.08886700	-0.19580100	0.79126000	0.12988300	-0.79126000	0.07373000	0.26806600	-0.64965800	-0.25561500	-0.37280300	-0.80590800	-0.02587900	0.13256800
5141	51.40000000	-0.93652300	-0.08667000	0.11206100	-0.67114300	0.08862300	-0.66186500	-0.69335900	-0.58276400	-0.11669900	-0.75756800	-0.36987300	0.08667000	-0.21606400	0.79345700	0.11669900	-0.79296900	0.05639600	0.26391600	-0.64111300	-0.25756800	-0.36645500	-0.81445300	-0.03222700	0.10107400
5142	51.41000000	-0.93872100	-0.08032200	0.11840800	-0.66674800	0.08862300	-0.66650400	-0.68505900	-0.58471700	-0.11889600	-0.75952100	-0.37597700	0.08471700	-0.24707000	0.78027300	0.12426800	-0.80590800	0.04980500	0.26611300	-0.64941400	-0.25976600	-0.37060500	-0.81689500	-0.02783200	0.07177700
5143	51.42000000	-0.93676800	-0.08032200	0.12060500	-0.66650400	0.07592800	-0.66601600	-0.68701200	-0.58691400	-0.12085000	-0.75293000	-0.38232400	0.08715800	-0.27148400	0.77563500	0.12500000	-0.79882800	0.03466800	0.25732400	-0.64306600	-0.26367200	-0.36840800	-0.81469700	-0.02978500	0.03369100
5144	51.43000000	-0.94091800	-0.07836900	0.11840800	-0.66845700	0.07617200	-0.67065400	-0.68701200	-0.58886700	-0.12085000	-0.74633800	-0.39038100	0.08300800	-0.30444300	0.75585900	0.13305700	-0.80053700	0.02368200	0.25732400	-0.64111300	-0.26171900	-0.36840800	-0.81469700	-0.02954100	0.00219700
5145	51.44000000	-0.93676800	-0.07836900	0.12500000	-0.67285200	0.07592800	-0.66845700	-0.68872100	-0.59521500	-0.11621100	-0.74023400	-0.39257800	0.08300800	-0.34204100	0.74047900	0.14086900	-0.80688500	0.01269500	0.25976600	-0.63696300	-0.26562500	-0.36425800	-0.81689500	-0.02710000	-0.03833000
5146	51.45000000	-0.93896500	-0.07617200	0.13134800	-0.67065400	0.07617200	-0.67309600	-0.67822300	-0.60156200	-0.11596700	-0.74414100	-0.39868200	0.08105500	-0.36840800	0.72265600	0.14428700	-0.80664100	0.00415000	0.25537100	-0.63281200	-0.26147500	-0.36621100	-0.81469700	-0.03125000	-0.08325200
5147	51.46000000	-0.94311500	-0.07617200	0.12915000	-0.67285200	0.07592800	-0.67309600	-0.68017600	-0.60156200	-0.12036100	-0.73754900	-0.40478500	0.07666000	-0.39917000	0.70288100	0.15014600	-0.80395500	-0.00878900	0.25781200	-0.63061500	-0.26367200	-0.36010700	-0.81005900	-0.03540000	-0.11474600
5148	51.47000000	-0.93896500	-0.07202100	0.13134800	-0.65966800	0.06982400	-0.67285200	-0.68237300	-0.59936500	-0.12060500	-0.73315400	-0.41308600	0.08154300	-0.44091800	0.67846700	0.15649400	-0.80590800	-0.01538100	0.25341800	-0.62451200	-0.26342800	-0.36206100	-0.80542000	-0.03955100	-0.14843800
5149	51.48000000	-0.93896500	-0.07202100	0.13354500	-0.66186500	0.07202100	-0.67285200	-0.67797900	-0.60571300	-0.12255900	-0.72485400	-0.41503900	0.08618200	-0.47583000	0.65210000	0.16943400	-0.80566400	-0.01977500	0.26025400	-0.61816400	-0.26538100	-0.36401400	-0.80078100	-0.04150400	-0.18432600
5150	51.49000000	-0.93481400	-0.06982400	0.13330100	-0.66186500	0.06982400	-0.67749000	-0.67358400	-0.60766600	-0.13134800	-0.72631800	-0.43164100	0.08007800	-0.51049800	0.61010700	0.18090800	-0.80346700	-0.02417000	0.26025400	-0.61401400	-0.26123000	-0.36621100	-0.78955100	-0.04345700	-0.21801800
5151	51.50000000	-0.93505900	-0.06762700	0.13769500	-0.66186500	0.07202100	-0.67529300	-0.67138700	-0.61401400	-0.13110400	-0.71801800	-0.43164100	0.08471700	-0.54321300	0.58374000	0.18261700	-0.80542000	-0.02832000	0.25585900	-0.60986300	-0.26318400	-0.36621100	-0.78247100	-0.05419900	-0.25830100
5152	51.51000000	-0.93920900	-0.06762700	0.13769500	-0.66162100	0.06567400	-0.67724600	-0.66918900	-0.61596700	-0.13549800	-0.71557600	-0.44409200	0.08740200	-0.57812500	0.55297900	0.18237300	-0.80346700	-0.02612300	0.25341800	-0.60766600	-0.26513700	-0.36401400	-0.76635700	-0.06469700	-0.29638700
5153	51.52000000	-0.93701200	-0.06762700	0.13549800	-0.65966800	0.07202100	-0.67749000	-0.66918900	-0.61596700	-0.14013700	-0.70922900	-0.45019500	0.09228500	-0.60620100	0.51562500	0.17553700	-0.80542000	-0.02832000	0.26025400	-0.59936500	-0.26904300	-0.37011700	-0.75048800	-0.07104500	-0.33007800
5154	51.53000000	-0.93701200	-0.06762700	0.13549800	-0.66626000	0.06982400	-0.67285200	-0.66503900	-0.61816400	-0.13989300	-0.70898400	-0.45849600	0.09033200	-0.64086900	0.48022500	0.16650400	-0.80346700	-0.02197300	0.26025400	-0.59521500	-0.26904300	-0.37011700	-0.73217800	-0.07934600	-0.37060500
5155	51.54000000	-0.93701200	-0.07202100	0.14233400	-0.65966800	0.07202100	-0.68212900	-0.66503900	-0.61401400	-0.14453100	-0.70043900	-0.46069300	0.10180700	-0.66430700	0.44287100	0.15747100	-0.80346700	-0.01977500	0.26025400	-0.58862300	-0.27294900	-0.38452100	-0.70898400	-0.10107400	-0.39746100
5156	51.55000000	-0.93945300	-0.06347700	0.13745100	-0.65771500	0.07202100	-0.67749000	-0.65844700	-0.62426800	-0.14648400	-0.68969700	-0.46875000	0.09082000	-0.68798800	0.41210900	0.15258800	-0.80395500	-0.01098600	0.26220700	-0.58252000	-0.27490200	-0.38452100	-0.68847700	-0.11401400	-0.42651400
5157	51.56000000	-0.93286100	-0.06762700	0.13769500	-0.66162100	0.06567400	-0.67724600	-0.65405300	-0.62841800	-0.14624000	-0.68945300	-0.47705100	0.09570300	-0.70727500	0.37915000	0.14770500	-0.80175800	-0.00439500	0.26220700	-0.58227500	-0.27905300	-0.38867200	-0.66772500	-0.13134800	-0.45776400
5158	51.57000000	-0.93945300	-0.05932600	0.13745100	-0.66186500	0.06787100	-0.67968800	-0.64770500	-0.63061500	-0.13940400	-0.68286100	-0.48950200	0.10058600	-0.71972700	0.34838900	0.13818400	-0.79126000	0.00659200	0.26220700	-0.57788100	-0.28491200	-0.39892600	-0.64917000	-0.14648400	-0.47802700
